<svg height="512" viewBox="0 0 64 64" width="512" xmlns="http://www.w3.org/2000/svg"><path d="m36 55h-33v5a1 1 0 0 0 1 1h56a1 1 0 0 0 1-1v-5z" fill="#ff9811"/><path d="m55 11v32h-46v-32a2.006 2.006 0 0 1 2-2h42a2.006 2.006 0 0 1 2 2z" fill="#5aaae7"/><path d="m55 43 6 12h-25-8-25l6-12z" fill="#ffa733"/><path d="m28 55h8v2a1 1 0 0 1 -1 1h-6a1 1 0 0 1 -1-1z" fill="#ee8700"/><path d="m22 21h5v16h-5z" fill="#ff9811"/><path d="m15 21h7v16h-7z" fill="#e6e7e8"/><path d="m27 21h5v16h-5z" fill="#ee8700"/><path d="m15 15h7v6h-7z" fill="#ff6243"/><path d="m32 21h5v16h-5z" fill="#ff9811"/><path d="m37 15v6h-5-5-5v-6z" fill="#ff5023"/><path d="m55 20.48v2a8.8 8.8 0 0 1 -3 .52 8.938 8.938 0 0 1 -6.69-3h-4.31l1.1-2h3.21a8.938 8.938 0 0 0 6.69 3 8.8 8.8 0 0 0 3-.52z" fill="#3d9ae2"/><path d="m52 3a8.981 8.981 0 0 0 -8.48 6 8.8 8.8 0 0 0 -.52 3 9.078 9.078 0 0 0 .22 1.97l-2.22 4.03h4.31a8.938 8.938 0 0 0 6.69 3 8.8 8.8 0 0 0 3-.52 9 9 0 0 0 -3-17.48z" fill="#ffd422"/><path d="m56 42.764v-21.605a10 10 0 1 0 -13.159-13.159h-31.841a3 3 0 0 0 -3 3v31.764l-5.895 11.789a1 1 0 0 0 -.105.447v5a2 2 0 0 0 2 2h56a2 2 0 0 0 2-2v-5a1 1 0 0 0 -.1-.447zm-27 13.236h6v1h-6zm-24.382-2 5-10h44.764l5 10zm47.382-50a8 8 0 1 1 -5.95 13.333 1 1 0 0 0 -.745-.333h-2.611l1.4-2.546a1 1 0 0 0 .1-.7 7.981 7.981 0 0 1 7.806-9.754zm-42 7a1 1 0 0 1 1-1h31.2a9.866 9.866 0 0 0 -.032 3.81l-2.045 3.707a1 1 0 0 0 .877 1.483h3.873a9.973 9.973 0 0 0 9.127 2.8v20.2h-44zm-6 49v-4h23v1a2 2 0 0 0 2 2h6a2 2 0 0 0 2-2v-1h23v4z"/><path d="m10 50h2v2h-2z"/><path d="m14 50h2v2h-2z"/><path d="m18 50h28v2h-28z"/><path d="m48 50h2v2h-2z"/><path d="m52 50h2v2h-2z"/><path d="m15 46h2v2h-2z"/><path d="m11 46h2v2h-2z"/><path d="m19 46h2v2h-2z"/><path d="m23 46h2v2h-2z"/><path d="m27 46h2v2h-2z"/><path d="m31 46h2v2h-2z"/><path d="m35 46h2v2h-2z"/><path d="m39 46h2v2h-2z"/><path d="m43 46h2v2h-2z"/><path d="m47 46h2v2h-2z"/><path d="m51 46h2v2h-2z"/><path d="m53 15h-2a1 1 0 0 1 -1-1h-2a3 3 0 0 0 3 3v1h2v-1a3 3 0 0 0 0-6h-2a1 1 0 0 1 0-2h2a1 1 0 0 1 1 1h2a3 3 0 0 0 -3-3v-1h-2v1a3 3 0 0 0 0 6h2a1 1 0 0 1 0 2z"/><path d="m37 14h-22a1 1 0 0 0 -1 1v22a1 1 0 0 0 1 1h22a1 1 0 0 0 1-1v-22a1 1 0 0 0 -1-1zm-1 6h-13v-4h13zm-8 2h3v14h-3zm-2 14h-3v-14h3zm-5-20v4h-5v-4zm-5 6h5v14h-5zm17 14v-14h3v14z"/><path d="m42 24h2v2h-2z"/><path d="m46 24h4v2h-4z"/><path d="m42 28h8v2h-8z"/><path d="m42 32h8v2h-8z"/></svg>